<?xml version="1.0" encoding="utf-8"?>
<!-- Generator: Adobe Illustrator 15.0.0, SVG Export Plug-In . SVG Version: 6.00 Build 0)  -->
<!DOCTYPE svg PUBLIC "-//W3C//DTD SVG 1.1//EN" "http://www.w3.org/Graphics/SVG/1.1/DTD/svg11.dtd">
<svg version="1.1" id="fb_xA0_Image_1_" xmlns="http://www.w3.org/2000/svg" xmlns:xlink="http://www.w3.org/1999/xlink" x="0px"
	 y="0px" width="240px" height="240px" viewBox="355.449 300.945 240 240" enable-background="new 355.449 300.945 240 240"
	 xml:space="preserve">
<g>
	<circle id="XMLID_2_" fill="#D0D0D1" cx="475.449" cy="420.945" r="119.832"/>
	<path id="XMLID_1_" fill="#FFFFFF" d="M456.833,457.011c0-11.246,0-22.492,0-33.739c0-1.938-0.387-2.326-2.326-2.326
		c-3.49,0-6.98,0-10.471,0c-1.551,0-1.939-0.388-1.939-1.939c0-6.98,0-13.961,0-20.941c0-1.163,0.389-1.939,1.939-1.939
		c3.49,0,6.98,0,10.859,0c1.938,0,2.326-0.775,2.326-2.714c0-5.43,0-10.471,0-15.9c0-6.592,1.939-12.41,5.816-17.839
		c5.041-6.593,12.021-9.695,19.779-10.083c8.143-0.388,16.674,0,24.818-0.388c1.164,0,1.551,0.388,1.551,1.551
		c0,6.98,0,13.961,0,21.329c0,1.164-0.387,1.551-1.551,1.551c-3.877,0-7.756,0-12.021,0c-5.43,0-8.531,2.715-8.92,8.144
		c-0.387,4.266,0,8.532,0,12.797c0,1.551,0.775,1.551,1.939,1.551c6.205,0,12.021,0,18.227,0c1.939,0,2.326,0.388,2.326,2.327
		c-0.775,6.98-1.551,13.961-1.938,20.942c0,1.551-0.777,1.939-2.328,1.939c-4.652,0-9.695,0-14.348,0
		c-3.49,0-3.104-0.388-3.104,3.103c0,22.104,0,43.821,0,65.927c0,2.326-0.775,2.715-2.715,2.715c-8.143,0-16.287,0-24.432,0
		c-2.326,0-2.715-0.776-2.715-2.715C456.833,479.116,456.833,467.869,456.833,457.011z"/>
</g>
<circle id="XMLID_6_" fill="#2E5690" cx="208.639" cy="-782.801" r="659.656"/>
<g>
	<circle id="XMLID_4_" fill="#D0D0D1" cx="119.832" cy="420.945" r="119.832"/>
	<path id="XMLID_3_" fill="#FFFFFF" d="M93.461,477.952c53.129,0,82.215-43.821,82.215-82.214c0-1.164,0-2.327,0-3.878
		c5.817-4.266,10.471-9.308,14.349-15.125c-5.042,2.327-10.858,3.878-16.676,4.654c5.817-3.49,10.471-9.308,12.798-15.9
		c-5.43,3.49-11.634,5.817-18.227,6.981c-5.429-5.43-12.797-9.308-20.941-9.308c-15.9,0-28.698,12.798-28.698,28.698
		c0,2.327,0.388,4.653,0.776,6.592c-24.432-0.388-45.761-12.021-59.722-29.473c-2.327,4.266-3.878,9.307-3.878,14.349
		c0,10.083,5.042,19.002,12.797,24.044c-4.653,0-9.307-1.551-13.185-3.49v0.388c0,13.961,10.083,25.595,23.268,28.31
		c-2.327,0.775-5.042,1.163-7.756,1.163c-1.939,0-3.49,0-5.429-0.388c3.49,11.635,14.349,19.778,27.146,20.166
		c-9.695,7.756-22.493,12.41-35.678,12.41c-2.327,0-4.654,0-6.98-0.388C62.049,473.299,77.173,477.952,93.461,477.952"/>
</g>
<g>
	<path fill="#FFFFFF" d="M208.639-1135.315c114.79,0,128.362,0.388,173.737,2.327c41.883,1.939,64.762,8.919,79.887,14.736
		c20.166,7.756,34.516,17.063,49.639,32.188c15.125,15.125,24.432,29.474,32.188,49.639c5.818,15.125,12.799,38.005,14.738,79.888
		c1.938,45.374,2.326,58.947,2.326,173.737s-0.389,128.363-2.326,173.736c-1.939,41.883-8.92,64.764-14.738,79.888
		c-7.756,20.166-17.063,34.515-32.188,49.639c-15.123,15.125-29.473,24.432-49.639,32.188
		c-15.125,5.817-38.004,12.797-79.887,14.736c-45.375,1.939-58.947,2.327-173.737,2.327c-114.791,0-128.364-0.388-173.737-2.327
		c-41.883-1.939-64.763-8.919-79.888-14.736c-20.166-7.756-34.515-17.063-49.639-32.188c-15.124-15.125-24.432-29.473-32.188-49.639
		c-5.817-15.124-12.798-38.005-14.737-79.888c-1.939-45.373-2.327-58.946-2.327-173.736c0-114.791,0.388-128.364,2.327-173.737
		c1.939-41.883,8.919-64.763,14.737-79.888c7.756-20.166,17.063-34.515,32.188-49.639c15.125-15.124,29.473-24.432,49.639-32.188
		c15.125-5.817,38.005-12.797,79.888-14.736C80.275-1134.928,93.849-1135.315,208.639-1135.315 M208.639-1212.876
		c-116.729,0-131.466,0.388-177.227,2.714c-45.761,1.939-77.173,9.307-104.319,20.166c-28.31,10.858-52.354,25.595-76.01,49.639
		c-24.044,24.044-38.78,47.7-49.639,76.01c-10.471,27.534-17.839,58.559-20.166,104.32c-1.939,45.761-2.715,60.497-2.715,177.227
		s0.388,131.466,2.715,177.227c1.939,45.761,9.307,77.173,20.166,104.32c10.859,28.31,25.595,52.354,49.639,76.01
		c24.044,24.043,47.7,38.78,76.01,49.639c27.534,10.471,58.559,17.839,104.319,20.166c45.761,1.939,60.498,2.714,177.227,2.714
		s131.466-0.388,177.228-2.714c45.76-1.939,77.172-9.307,104.318-20.166c28.311-10.859,52.354-25.596,76.01-49.639
		c24.045-24.044,38.781-47.7,49.639-76.01c10.471-27.534,17.84-58.559,20.166-104.32c1.939-45.761,2.715-60.497,2.715-177.227
		S638.326-914.267,636-960.027c-1.939-45.761-9.307-77.173-20.166-104.32c-10.857-28.31-25.594-52.354-49.639-76.01
		c-24.043-24.044-47.699-38.78-76.01-49.639c-27.533-10.471-58.559-17.839-104.318-20.166
		C340.105-1212.488,325.755-1212.876,208.639-1212.876"/>
	<path fill="#FFFFFF" d="M208.639-1003.462c-121.771,0-220.661,98.891-220.661,220.661S86.868-562.14,208.639-562.14
		c121.771,0,220.661-98.89,220.661-220.661C429.687-904.571,330.798-1003.462,208.639-1003.462 M208.639-639.313
		c-79.112,0-143.488-63.988-143.488-143.488s63.988-143.488,143.488-143.488c79.112,0,143.487,63.988,143.487,143.488
		S287.751-639.313,208.639-639.313"/>
	<path fill="#FFFFFF" d="M489.798-1012.381c0,28.31-23.27,51.578-51.578,51.578c-28.311,0-51.578-23.269-51.578-51.578
		s23.268-51.578,51.578-51.578C466.917-1063.959,489.798-1040.691,489.798-1012.381"/>
	<rect x="-221.437" y="-1212.876" fill="none" width="860.151" height="860.15"/>
</g>
</svg>
